<svg height='300px' width='300px'  fill="#000000" xmlns="http://www.w3.org/2000/svg" viewBox="0 0 100 100" x="0px" y="0px"><path d="m32.985 8.895l-24.09 24.09 0 34.06 24.09 24.06 34.06 0 24.06-24.09 0-34.03-24.09-24.09-34.03 0m17.5 4.5c2 0 3.626 1.655 3.625 3.656l0 29.25 1.438 0 0-24.938c0-2 1.621-3.625 3.625-3.625 2 0 3.656 1.622 3.656 3.625l0 31.906 1.438 0 0-8.25c0-2 1.708-5.219 5.219-5.219 2 0 2.031.533 2.031 3.625l0 20.03c-.003 11.62-9.412 21.03-21.03 21.03-11.62-.003-21.03-9.4-21.03-18.844l0-26.969c0-3.091 1.623-4.719 3.625-4.719 2 0 3.625 1.623 3.625 3.625l0 12.469 1.438 0 0-28.688c0-2 1.653-3.625 3.656-3.625 2 0 3.625 1.622 3.625 3.625l0 24.938 1.438 0 0-29.25c0-2 1.622-3.656 3.625-3.656"></path><path d="m43.16 54.2l-3.844 3.813 7.188 7.25-7.188 7.188 3.844 3.844 7.188-7.219 7.25 7.219 3.813-3.844-7.188-7.188 7.188-7.25-3.813-3.813-7.25 7.188-7.188-7.188"></path><path d="m31.813 5l-26.5 26.06-.313 37.13 26.06 26.5 37.16.313 26.5-26.06.281-37.16-26.03-26.469-37.16-.313m.813 2l35.5.281 24.875 25.313-.281 35.5-25.313 24.906-35.5-.281-24.906-25.313.313-35.5 25.313-24.906" color="#000"></path></svg>